<?xml version="1.0" encoding="utf-8"?>
<svg width="800px" height="800px" viewBox="0 0 512 512" xmlns="http://www.w3.org/2000/svg">
  <g id="SVGRepo_bgCarrier" stroke-width="0"/>
  <g id="SVGRepo_tracerCarrier" stroke-linecap="round" stroke-linejoin="round"/>
  <g id="SVGRepo_iconCarrier" style="" transform="matrix(0.810838, 0, 0, 0.810838, 48.021019, 63.379673)">
    <path d="M 368.556 12.842 C 366.173 12.848 363.776 12.865 361.368 12.89 C 264.753 13.896 148.919 29.233 68.239 61.189 C 121.873 91.706 215.484 131.109 293.497 124.812 C 399.385 111.043 424.256 59.935 460.315 21.241 C 379.772 56.643 454.741 27.718 462.877 19.239 C 462.877 19.239 430.834 15.749 431.167 15.582 C 417.816 20.588 355.158 46.214 431.252 15.615 C 411.808 14.14 391.036 12.774 368.556 12.841 L 368.556 12.842 Z M 484.603 23.611 C 445.311 59.177 419.583 126.656 295.579 142.699 L 295.37 142.726 L 295.157 142.744 C 233.871 147.751 167.127 127.863 113.772 104.404 C 23.659 185.437 -6.957 314.871 42.579 413.38 C 35.389 428.513 28.479 469.094 37.235 474.835 C 47.142 481.332 93.612 484.397 137.669 458.683 C 404.644 480.832 518.744 261.587 471.979 85.043 C 480.975 67.504 488.973 36.721 484.602 23.611 L 484.603 23.611 Z" style=""/>
  </g>
  <g transform="matrix(1.265872, 0, 0, 1.265872, 76.713081, 79.307846)" style="">
    <path fill="currentColor" d="M 157.458 58.014 C 153.196 64.52 148.251 69.947 142.725 74.195 L 133.678 81.412 C 119.85 93.701 109.901 103.629 104.09 110.918 C 93.508 124.174 87.706 137.641 86.831 150.943 C 85.854 165.946 90.135 180.186 99.555 193.278 C 109.544 207.229 122.154 214.792 137.043 215.762 C 140.455 215.988 144.193 215.951 147.302 215.747 L 146.14 205.273 C 143.973 205.472 141.676 205.504 139.269 205.343 C 129.487 204.704 120.751 200.667 113.287 193.347 C 105.488 185.745 101.993 177.367 102.624 167.742 C 103.815 149.508 115.646 131.456 137.791 114.054 L 147.683 106.176 C 156.385 98.74 163.432 89.393 168.64 78.369 C 173.793 67.427 176.814 55.581 177.63 43.166 C 178.113 35.871 177.098 26.813 174.651 16.25 C 171.291 1.904 166.509 -5.275 159.997 -5.705 C 157.684 -5.848 155.15 -4.682 152.059 -1.955 C 144.541 4.833 139.077 13.056 135.802 22.449 C 133.274 29.628 131.596 39.231 130.821 50.986 C 130.496 55.879 131.145 64.916 132.692 75.825 L 141.86 67.333 C 141.831 66.107 141.865 64.832 141.959 63.495 C 142.442 56.009 144.332 47.881 147.551 39.349 C 151.651 28.676 155.521 25.449 158.055 24.625 C 158.747 24.399 159.423 24.316 160.143 24.361 C 163.445 24.581 166.734 25.978 166.171 34.706 C 165.697 42.106 162.76 49.944 157.458 58.014 Z" />
    <path fill="currentColor" d="M 165.578 211.105 C 171.516 208.443 176.588 204.39 180.688 199.027 C 185.928 192.226 188.874 184.187 189.465 175.136 C 190.212 164.025 187.543 153.95 181.569 145.183 C 175.016 135.58 166.041 130.342 154.882 129.607 C 153.604 129.523 152.245 129.529 150.844 129.633 L 148.456 111.812 L 138.434 119.185 L 139.971 131.825 C 133.97 134.306 128.747 138.221 124.404 143.493 C 119.404 149.633 116.621 156.391 116.148 163.584 C 115.665 171.056 117.332 177.9 121.106 183.884 C 123.07 187.078 125.778 189.917 128.878 192.237 C 133.964 196.021 139.828 195.737 140.757 193.681 C 141.696 191.626 138.212 188.4 135.48 184.095 C 133.923 181.658 133.156 178.732 133.156 175.287 C 133.156 167.975 137.568 161.69 143.851 158.909 L 149.732 204.739 L 151.105 215.373 C 152.001 220.424 152.887 225.454 153.735 230.424 C 154.772 237.15 155.137 242.98 154.814 247.751 C 154.38 254.36 152.318 259.759 148.678 263.812 C 146.363 266.388 143.657 268.015 140.598 268.917 C 144.704 264.81 147.247 259.142 147.247 252.872 C 147.247 240.355 137.096 230.199 124.576 230.199 C 121.1 230.199 117.847 231.041 114.905 232.437 C 114.532 232.598 114.181 232.84 113.813 233.032 C 113.005 233.473 112.197 233.914 111.443 234.444 C 111.185 234.638 110.938 234.862 110.684 235.071 C 105.617 239.027 102.297 245.04 102.003 251.895 C 102.003 251.905 101.991 251.916 101.991 251.927 C 101.991 251.932 101.991 251.937 101.991 251.943 C 101.978 252.266 101.898 252.555 101.898 252.872 C 101.898 253.141 101.967 253.382 101.979 253.639 C 101.967 260.983 105.019 267.301 111.142 272.421 C 116.93 277.258 123.868 279.967 131.762 280.482 C 136.247 280.773 140.578 280.258 144.623 278.943 C 147.929 277.864 151.128 276.227 154.107 274.084 C 161.322 268.879 165.251 262.076 165.792 253.837 C 166.206 247.552 165.889 240.118 164.821 231.642 L 161.879 212.538 L 154.461 157.702 C 162.737 159.291 169.001 166.558 169.001 175.292 C 169.001 181.497 166.993 191.288 163.247 196.414 L 165.578 211.105 Z" />
  </g>
</svg>